<svg xmlns="http://www.w3.org/2000/svg" width="512" height="512" viewBox="0 0 512 512" version="1.1">
	<path d="M 255.500 7.471 C 254.950 7.666, 253.150 8.118, 251.500 8.475 C 249.275 8.957, 237.082 20.523, 204.292 53.255 C 167.965 89.519, 159.974 97.039, 159.461 95.442 C 156.549 86.374, 155.349 86, 129.181 86 C 116.477 86, 107.053 86.434, 105.119 87.108 C 99.204 89.170, 99 90.472, 99 126.148 L 99 158.395 68.630 188.947 C 48.322 209.378, 38.041 220.424, 37.601 222.288 C 36.655 226.296, 39.313 231.172, 45.558 236.879 C 51.464 242.277, 54.988 243.449, 59.562 241.539 C 61.289 240.817, 104.495 198.579, 158.692 144.630 C 216.227 87.358, 255.498 49, 256.598 49 C 257.701 49, 296.822 87.354, 354.468 144.949 C 407.285 197.721, 451.648 241.326, 453.051 241.849 C 457.182 243.388, 460.782 242.052, 466.442 236.879 C 472.729 231.133, 475.360 226.286, 474.360 222.288 C 473.884 220.387, 440.938 186.592, 370.790 116.051 C 314.209 59.154, 266.473 11.591, 264.708 10.356 C 261.487 8.102, 257.365 6.810, 255.500 7.471 M 240.252 117.972 C 231.979 121.727, 223.184 132.828, 221.395 141.774 L 220.750 145 234.375 145 L 248 145 248 130.500 C 248 114.109, 248.167 114.379, 240.252 117.972 M 264 130.500 L 264 145 277.625 145 L 291.250 145 290.605 141.774 C 288.816 132.828, 280.021 121.727, 271.748 117.972 C 263.833 114.379, 264 114.109, 264 130.500 M 220 173.500 L 220 185 234 185 L 248 185 248 173.500 L 248 162 234 162 L 220 162 220 173.500 M 264 173.500 L 264 185 278 185 L 292 185 292 173.500 L 292 162 278 162 L 264 162 264 173.500 M 215.286 203.714 C 216.905 205.333, 217.095 205.333, 218.714 203.714 C 220.333 202.095, 220.238 202, 217 202 C 213.762 202, 213.667 202.095, 215.286 203.714 M 121.333 219.097 C 119.591 219.602, 117.004 221.396, 115.583 223.084 L 113 226.153 113 246.077 L 113 266 105.649 266 C 96.044 266, 92.443 267.290, 91.073 271.222 C 89.657 275.283, 89.693 296.821, 91.123 300.922 C 91.773 302.789, 93.272 304.533, 94.688 305.071 C 97.967 306.318, 414.033 306.318, 417.312 305.071 C 418.728 304.533, 420.227 302.789, 420.877 300.922 C 422.307 296.821, 422.343 275.283, 420.927 271.222 C 419.636 267.517, 415.982 266, 408.351 266 L 403 266 403 246.016 L 403 226.032 400.250 222.963 C 398.606 221.128, 395.891 219.523, 393.500 218.971 C 388.204 217.749, 125.569 217.871, 121.333 219.097 M 121.607 228.582 C 121.273 229.452, 121 238.227, 121 248.082 L 121 266 130.500 266 L 140 266 140 246.500 L 140 227 131.107 227 C 123.920 227, 122.098 227.303, 121.607 228.582 M 149 246.500 L 149 266 160.500 266 L 172 266 172 246.500 L 172 227 160.500 227 L 149 227 149 246.500 M 180 246.500 L 180 266 192 266 L 204 266 204 246.500 L 204 227 192 227 L 180 227 180 246.500 M 212 246.500 L 212 266 224 266 L 236 266 236 246.500 L 236 227 224 227 L 212 227 212 246.500 M 244 246.500 L 244 266 256 266 L 268 266 268 246.500 L 268 227 256 227 L 244 227 244 246.500 M 276 246.500 L 276 266 288 266 L 300 266 300 246.500 L 300 227 288 227 L 276 227 276 246.500 M 308 246.500 L 308 266 320 266 L 332 266 332 246.500 L 332 227 320 227 L 308 227 308 246.500 M 340 246.500 L 340 266 351.500 266 L 363 266 363 246.500 L 363 227 351.500 227 L 340 227 340 246.500 M 372 246.467 L 372 266 383.522 266 L 395.043 266 394.772 246.750 L 394.500 227.500 383.250 227.217 L 372 226.934 372 246.467 M 224.450 314.407 C 220.458 316.146, 216.336 321.131, 215.044 325.781 C 214.381 328.170, 214.009 353.745, 214.006 397.294 L 214 465.088 153.750 464.576 C 120.612 464.294, 91.449 463.937, 88.942 463.782 C 85.063 463.542, 83.529 462.738, 78.653 458.393 C 60.263 442.006, 34.404 441.682, 16.195 457.611 C 3.598 468.630, -2.136 487.484, 2.091 503.979 L 3.378 509 113.439 509.050 C 370.939 509.166, 507.517 508.876, 508.071 508.211 C 509.127 506.943, 511 499.348, 511 496.334 C 511 494.720, 511.406 492.972, 511.903 492.450 C 514.020 490.222, 508.753 469.608, 504.101 461.914 C 495.541 447.757, 481.828 438.461, 465.800 435.949 C 444.745 432.649, 421.964 443.165, 411.864 460.847 L 409.500 464.985 353.750 464.992 L 298 465 297.994 397.250 C 297.991 351.581, 297.634 328.196, 296.901 325.500 C 295.612 320.758, 291.745 316.286, 287.282 314.377 C 282.733 312.430, 228.929 312.456, 224.450 314.407 M 23.634 333.851 C 21.786 335.894, 9 376.543, 9 380.377 C 9 381.698, 9.860 383.841, 10.911 385.139 L 12.822 387.500 54.911 387.782 L 97 388.063 97 360.032 L 97 332 61.155 332 C 27.538 332, 25.206 332.115, 23.634 333.851 M 415 360.032 L 415 388.063 457.089 387.782 L 499.178 387.500 501.089 385.139 C 502.140 383.841, 503 381.698, 503 380.377 C 503 376.543, 490.214 335.894, 488.366 333.851 C 486.794 332.115, 484.462 332, 450.845 332 L 415 332 415 360.032 M 195.845 343.921 C 196.157 348.476, 196.371 348.872, 198.040 347.979 C 201.133 346.323, 201.177 345.229, 198.279 341.986 L 195.500 338.874 195.845 343.921 M 135 378 L 135 410 157.500 410 L 180 410 180 378 L 180 346 157.500 346 L 135 346 135 378 M 334 378 L 334 410 356.500 410 L 379 410 379 378 L 379 346 356.500 346 L 334 346 334 378 M 241.315 380.007 C 234.059 382.931, 236.455 394, 244.345 394 C 252.047 394, 254.356 383.306, 247.343 380.110 C 244.531 378.829, 244.250 378.825, 241.315 380.007" stroke="none" fill="black" fill-rule="evenodd"/>
</svg>